# xmcd CD database file
#
# Track frame offsets:
#	150
#	17521
#	35965
#	52858
#	66344
#	83310
#	102221
#	117798
#	134784
#	154199
#	171518
#	190439
#	206327
#	226512
#	245760
#	261793
#	278042
#	293803
#	308593
#	327010
#
# Disc length: 4531 seconds
#
# Revision: 0
# Processed by: cddbd v1.5.1PL0 Copyright (c) Steve Scherf et al.
# Submitted via: CDex 1.51
#
DISCID=1511b114
DTITLE=Romanticas Sertanejas - Varios
DYEAR=2004
DGENRE=Country
TTITLE0=Hotel california - Leonardo
TTITLE1=Em qualquer lugar do mundo - Daniel
TTITLE2=Deixa - Bruno e Marrone
TTITLE3=Acordo pra sonhar - Ataide e Alexandre
TTITLE4=Toma conta de mim - João Pedro e Cristiano
TTITLE5=I love you babye - Cezar e Paulinho
TTITLE6=Volta - Edson e Hudson
TTITLE7=Um degrau na escada - Chico Rey e Paraná
TTITLE8=Seresteiro das noites - Leonardo
TTITLE9=Correnteza de emoção - Daniel
TTITLE10=Voce não me ensinou a te esquecer - Bruno e Marrone
TTITLE11=Amor de arrepiar - Ataide e Alexandre
TTITLE12=Frente a frente - João Pedro e Cristiano
TTITLE13=Ninguém vive sem amor - Cezar e Paulinho
TTITLE14=Porta retrato - Edson e Hudson
TTITLE15=Casal nota mil - Chico Rey e Paraná
TTITLE16=Ainda queima a esperança - Leonardo
TTITLE17=Jogedo na rua - Daniel
TTITLE18=Coração de pedra - Bruno e Marrone
TTITLE19=Te amo que mais posso dizer - Ataide e Alexandre
EXTD=YEAR: 2004
EXTT0=
EXTT1=
EXTT2=
EXTT3=
EXTT4=
EXTT5=
EXTT6=
EXTT7=
EXTT8=
EXTT9=
EXTT10=
EXTT11=
EXTT12=
EXTT13=
EXTT14=
EXTT15=
EXTT16=
EXTT17=
EXTT18=
EXTT19=
PLAYORDER=
